<svg xmlns="http://www.w3.org/2000/svg" viewBox="0 0 511.448 511.448" width="511.448" height="511.448"><path d="M494.878 308.194v18.227c0 5.181-4.209 9.389-9.389 9.389H388.28c-5.181 0-9.389-4.209-9.389-9.389v-18.227zM364.089 335.81H16.57V105.493c0-10.052 8.174-18.227 18.227-18.227h327.525v18.779H43.633a8.288 8.288 0 0 0-8.285 8.285v194.416a8.288 8.288 0 0 0 8.285 8.285h318.688v9.389c0 3.315.63 6.474 1.768 9.39zM494.878 78.982v18.227H378.891V78.982c0-5.181 4.209-9.389 9.389-9.389h97.208c5.181-.001 9.39 4.208 9.39 9.389z" fill="#fff"/><path d="M166.8 396.565h115.987v45.29H166.8zm266.218-44.185v9.389c0 10.052-8.174 18.227-18.227 18.227H34.796c-10.052 0-18.227-8.174-18.227-18.227v-9.389H388.28zm61.86-238.602v177.847H378.891v-71.801h51.244l-21.197 21.209a8.271 8.271 0 0 0 0 11.709 8.22 8.22 0 0 0 5.855 2.43 8.22 8.22 0 0 0 5.855-2.43l35.348-35.348a8.271 8.271 0 0 0 0-11.709l-35.348-35.348a8.273 8.273 0 0 0-11.709 0 8.271 8.271 0 0 0 0 11.709l21.197 21.209h-51.244v-89.476h115.986zM362.321 219.823v80.639H51.918V122.615h310.403v80.639H187.358l21.197-21.209a8.271 8.271 0 0 0 0-11.709 8.273 8.273 0 0 0-11.709 0l-35.348 35.348a8.271 8.271 0 0 0 0 11.709l35.348 35.348a8.22 8.22 0 0 0 5.855 2.43 8.22 8.22 0 0 0 5.855-2.43 8.271 8.271 0 0 0 0-11.709l-21.197-21.209z" fill="#f1c513"/><path d="M511.448 78.982v247.439c0 14.316-11.643 25.959-25.959 25.959h-35.901v9.389c0 19.188-15.609 34.796-34.796 34.796H299.357v45.29h27.064a8.288 8.288 0 0 1 8.285 8.285 8.288 8.288 0 0 1-8.285 8.285H123.167a8.288 8.288 0 0 1-8.285-8.285 8.288 8.288 0 0 1 8.285-8.285h27.064v-45.29H34.796C15.609 396.565 0 380.957 0 361.769V105.493c0-19.188 15.609-34.796 34.796-34.796H363.68c3.469-10.262 13.178-17.674 24.6-17.674h97.208c14.317 0 25.96 11.643 25.96 25.959zm-16.57 247.439v-18.227H378.891v18.227c0 5.181 4.209 9.389 9.389 9.389h97.208c5.181 0 9.39-4.209 9.39-9.389zm0-34.796V113.778H378.891v89.476h51.244l-21.197-21.209a8.271 8.271 0 0 1 0-11.709 8.273 8.273 0 0 1 11.709 0l35.348 35.348a8.271 8.271 0 0 1 0 11.709l-35.348 35.348a8.22 8.22 0 0 1-5.855 2.43 8.22 8.22 0 0 1-5.855-2.43 8.271 8.271 0 0 1 0-11.709l21.197-21.209H378.89v71.801h115.988zm0-194.417V78.982c0-5.181-4.209-9.389-9.389-9.389H388.28c-5.181 0-9.389 4.209-9.389 9.389v18.227h115.987zm-61.86 264.561v-9.389H16.57v9.389c0 10.052 8.174 18.227 18.227 18.227h379.996c10.051 0 18.225-8.175 18.225-18.227zM16.57 335.81h347.519a25.768 25.768 0 0 1-1.767-9.389v-9.389H43.633a8.288 8.288 0 0 1-8.285-8.285V114.33a8.288 8.288 0 0 1 8.285-8.285h318.688V87.266H34.796c-10.052 0-18.227 8.174-18.227 18.227V335.81zm345.751-35.348v-80.639H187.358l21.197 21.209a8.271 8.271 0 0 1 0 11.709 8.22 8.22 0 0 1-5.855 2.43 8.22 8.22 0 0 1-5.855-2.43l-35.348-35.348a8.271 8.271 0 0 1 0-11.709l35.348-35.348a8.273 8.273 0 0 1 11.709 0 8.271 8.271 0 0 1 0 11.709l-21.197 21.209h174.964v-80.639H51.918v177.847zm-79.534 141.393v-45.29H166.8v45.29z" fill="#535757"/></svg>