<svg xmlns="http://www.w3.org/2000/svg" viewBox="0 0 409.08301 409.08301" width="700" height="700"><path d="M7.133 2.1c-2.75 0-4.8 2.24-4.555 4.98l23.184 260.047c.244 2.739 2.61 5.582 5.262 6.318l98.38 27.316c2.65.736 6.987.736 9.638.002l98.68-27.361c2.65-.735 5.02-3.578 5.264-6.316L266.208 7.08c.246-2.74-1.805-4.98-4.555-4.98zm209.702 59.64c-.22 2.444-.598 6.685-.842 9.424l-.611 6.823c-.246 2.738-.596 6.654-.781 8.7-.184 2.049-.36 3.724-.391 3.724H92.545c-2.75 0-4.8 2.24-4.555 4.98l2.143 23.955c.244 2.738 2.695 4.98 5.445 4.98H206.79c2.449 0 4.273 1.999 4.05 4.442a5396.99 5396.99 0 0 0-.847 9.423l-6.891 77.228c-.246 2.739-.557 6.238-.691 7.776-.137 1.537-2.416 3.396-5.066 4.13l-58.133 16.12c-2.65.734-4.852 1.342-4.893 1.35-.041.01-2.242-.585-4.893-1.32L71.23 227.327c-2.65-.735-5.018-3.578-5.262-6.317l-3.746-42.045c-.244-2.74 1.807-4.98 4.557-4.98H90.01c2.75 0 5.2 2.24 5.446 4.98l1.469 16.459c.244 2.739 2.615 5.566 5.27 6.283l27.222 7.35c2.654.718 4.836 1.305 4.848 1.305.012 0 2.193-.588 4.848-1.305l27.27-7.37c2.654-.716 5.027-3.544 5.273-6.282l2.957-32.976c.246-2.74-1.803-4.98-4.553-4.98H65.296c-2.75 0-5.198-2.242-5.442-4.98l-7.256-81.306-.842-9.423c-.217-2.443 1.854-4.442 4.604-4.442h155.872c2.749 0 4.82 1.999 4.603 4.443z" fill="#ff4f1d"/><path d="M401.33 206.581H219.945c-4.345 0-7.605 3.37-7.222 7.352l16.568 170.179c.384 3.979 4.139 8.144 8.35 9.219l65.311 16.63c4.206 1.068 11.08 1.075 15.292.013l65.392-16.606c4.213-1.072 7.968-5.2 8.351-9.185l16.575-170.25c.383-3.982-2.863-7.352-7.23-7.352zm-31.457 61.43c-.002.026-.025.046-.053.05a.065.065 0 0 1-.068-.033l-51.17 19.22c-.728.275-1.144.983-.992 1.691.152.709.83 1.22 1.618 1.22h39.802c2.117 0 4.134.824 5.55 2.267 1.415 1.443 2.096 3.37 1.871 5.3l-6.219 53.474c-.305 2.624-2.229 4.852-4.944 5.728l-42.246 13.626a8.1 8.1 0 0 1-4.92.01l-42.05-13.35c-2.732-.868-4.671-3.104-4.979-5.739l-2.819-24.218c-.148-1.271.3-2.54 1.233-3.49.932-.952 2.261-1.495 3.656-1.495h11.701c2.515 0 4.624 1.738 4.89 4.03l1.73 14.886 29.114 9.276 29.248-9.36 3.578-30.874h-82.697c-2.507 0-4.613-1.728-4.888-4.012l-1.574-13.085c-.24-1.996.988-3.897 3.013-4.661l52.926-20.002c.6-.227.942-.81.816-1.394-.126-.584-.684-1.004-1.333-1.004h-55.725c-1.677 0-3.084-1.161-3.26-2.69l-1.611-14.064c-.097-.846.202-1.69.824-2.324.621-.632 1.507-.993 2.435-.993h116.6c.934 0 1.823.365 2.445 1.003.621.638.917 1.49.811 2.34z" fill="#0074bc"/></svg>